<?xml version="1.0" encoding="UTF-8" standalone="no"?>
<!-- Created with Inkscape (http://www.inkscape.org/) -->

<svg
   width="210mm"
   height="210mm"
   viewBox="0 0 210 210"
   version="1.1"
   id="svg1"
   xmlns="http://www.w3.org/2000/svg"
   xmlns:svg="http://www.w3.org/2000/svg">
  <defs
     id="defs1" />
  <g
     id="layer1">
    <path
       d="M 199.42555,59.396891 H 10.390063 A 104.98248,104.96922 0 0 0 -0.14004313,104.91194 104.98248,104.96922 0 0 0 10.558529,150.73654 H 199.12635 a 104.98248,104.96922 0 0 0 10.69857,-45.8246 104.98248,104.96922 0 0 0 -10.39937,-45.515049 z"
       style="fill:#ffe400;stroke-width:47.1585;stroke-linecap:round;stroke-linejoin:round;stroke-miterlimit:0;paint-order:markers stroke fill"
       id="path3" />
    <path
       d="M 199.42555,59.396891 A 104.98248,104.96922 0 0 0 104.8427,-0.05684408 104.98248,104.96922 0 0 0 10.390063,59.396891 Z"
       style="fill:#ff2600;stroke-width:25;stroke-linecap:round;stroke-linejoin:round;stroke-miterlimit:0;paint-order:markers stroke fill"
       id="path2" />
    <path
       d="M 199.12635,150.73654 H 10.558529 a 104.98248,104.96922 0 0 0 94.284171,59.14471 104.98248,104.96922 0 0 0 94.28365,-59.14471 z"
       style="fill:#ff2600;stroke-width:25;stroke-linecap:round;stroke-linejoin:round;stroke-miterlimit:0;paint-order:markers stroke fill"
       id="path4" />
    <ellipse
       style="fill:none;fill-opacity:1;stroke:#000000;stroke-width:4.86632;stroke-linecap:round;stroke-linejoin:round;stroke-miterlimit:0;stroke-dasharray:none;paint-order:markers stroke fill"
       id="path5"
       cx="104.93465"
       cy="105.19863"
       rx="102.18155"
       ry="102.44556" />
  </g>
</svg>
