<?xml version="1.0" encoding="UTF-8" standalone="no"?>
<svg
   width="24"
   height="24"
   viewBox="0 0 24 24"
   version="1.1"
   id="svg2"
   sodipodi:docname="closeMenu.svg"
   inkscape:version="1.4 (86a8ad7, 2024-10-11)"
   xmlns:inkscape="http://www.inkscape.org/namespaces/inkscape"
   xmlns:sodipodi="http://sodipodi.sourceforge.net/DTD/sodipodi-0.dtd"
   xmlns="http://www.w3.org/2000/svg"
   xmlns:svg="http://www.w3.org/2000/svg">
  <defs
     id="defs2" />
  <sodipodi:namedview
     id="namedview2"
     pagecolor="#505050"
     bordercolor="#eeeeee"
     borderopacity="1"
     inkscape:showpageshadow="0"
     inkscape:pageopacity="0"
     inkscape:pagecheckerboard="0"
     inkscape:deskcolor="#505050"
     inkscape:zoom="33.14563"
     inkscape:cx="6.5921208"
     inkscape:cy="12.3244"
     inkscape:window-width="2560"
     inkscape:window-height="1351"
     inkscape:window-x="-9"
     inkscape:window-y="-9"
     inkscape:window-maximized="1"
     inkscape:current-layer="svg2" />
  <g
     fill="none"
     fill-rule="evenodd"
     id="g2"
     transform="matrix(1.4739085,0,0,1.4708753,-5.6524845,-6.0242962)">
    <path
       d="m 12.593,23.258 -0.011,0.002 -0.071,0.035 -0.02,0.004 -0.014,-0.004 -0.071,-0.035 q -0.016,-0.005 -0.024,0.005 l -0.004,0.01 -0.017,0.428 0.005,0.02 0.01,0.013 0.104,0.074 0.015,0.004 0.012,-0.004 0.104,-0.074 0.012,-0.016 0.004,-0.017 -0.017,-0.427 Q 12.606,23.26 12.593,23.258 m 0.265,-0.113 -0.013,0.002 -0.185,0.093 -0.01,0.01 -0.003,0.011 0.018,0.43 0.005,0.012 0.008,0.007 0.201,0.093 q 0.019,0.005 0.029,-0.008 l 0.004,-0.014 -0.034,-0.614 q -0.005,-0.018 -0.02,-0.022 m -0.715,0.002 a 0.02,0.02 0 0 0 -0.027,0.006 l -0.006,0.014 -0.034,0.614 q 10e-4,0.018 0.017,0.024 l 0.015,-0.002 0.201,-0.093 0.01,-0.008 0.004,-0.011 0.017,-0.43 -0.003,-0.012 -0.01,-0.01 z"
       id="path1" />
    <path
       fill="#000000"
       d="m 12,14.122 5.303,5.303 a 1.5004806,1.5004806 0 0 0 2.122,-2.122 L 14.12,12 19.424,6.697 A 1.5001271,1.5001271 0 1 0 17.302,4.576 L 12,9.879 6.697,4.576 A 1.5,1.5 0 1 0 4.575,6.696 L 9.88,12 4.576,17.304 a 1.5,1.5 0 1 0 2.122,2.12 z"
       id="path2" />
  </g>
</svg>
