<?xml version="1.0" encoding="UTF-8" standalone="no"?>
<!-- Created with Inkscape (http://www.inkscape.org/) -->

<svg
   width="210mm"
   height="210mm"
   viewBox="0 0 210 210"
   version="1.1"
   id="svg1"
   xml:space="preserve"
   xmlns="http://www.w3.org/2000/svg"
   xmlns:svg="http://www.w3.org/2000/svg"><defs
     id="defs1" /><g
     id="layer1"><path
       style="fill:#d02d25;stroke-width:0.993132"
       d="m 95.346494,205.33154 c -1.830729,-0.15773 -3.841029,-0.37914 -4.467331,-0.49202 l -1.138731,-0.20523 v -40.658 c 0,-33.88541 -0.0795,-40.72382 -0.477271,-41.05311 -0.350406,-0.29008 -11.656167,-0.37113 -42.533267,-0.30492 l -42.0559992,0.0902 -0.4010969,-2.97074 C 2.8086583,108.89349 2.8718355,99.382629 4.478259,88.807044 4.7994452,86.692575 5.1286698,85.159149 5.2098689,85.39943 c 0.1170096,0.346248 8.8557171,0.436873 42.1264231,0.436873 37.955943,0 41.999168,-0.05297 42.191463,-0.552833 0.116972,-0.304058 0.212677,-18.462142 0.212677,-40.351297 V 5.1337091 l 1.138731,-0.1970226 c 2.503127,-0.4330894 9.438717,-0.8766859 13.577187,-0.8683894 6.14742,0.012324 15.56344,0.8636053 15.24459,1.3782294 -0.0902,0.1457164 -0.17387,18.1617645 -0.18574,40.0356615 -0.0174,32.134282 0.0653,39.825703 0.43091,40.057067 0.24886,0.15749 19.08388,0.288753 41.85559,0.291696 32.814,0.0043 41.43373,-0.08528 41.55075,-0.431521 0.0812,-0.240281 0.41041,1.293145 0.7316,3.407614 1.60643,10.575585 1.6696,20.086436 0.20547,30.930656 l -0.4011,2.97074 -41.70559,-0.0902 c -30.76476,-0.0665 -41.83156,0.0141 -42.18577,0.3073 -0.40257,0.33326 -0.46555,6.96623 -0.3897,41.03963 l 0.0904,40.64212 -1.7519,0.21475 c -7.26067,0.88999 -15.91803,1.08517 -22.599436,0.5095 z M 29.780661,172.94817 c -1.948704,-2.0581 -5.522519,-6.38843 -6.89179,-8.35068 -0.55231,-0.79149 -0.645103,-1.14682 -0.331375,-1.26892 0.239661,-0.0933 4.614016,-3.36706 9.720789,-7.27507 5.106774,-3.90801 11.361849,-8.68433 13.900168,-10.61404 2.538321,-1.92971 6.558919,-5.00268 8.934664,-6.82881 l 4.319536,-3.32024 9.931171,-0.10287 c 10.525613,-0.10904 10.916376,-0.0547 10.916376,1.51663 0,1.08126 -1.779612,2.53285 -20.999943,17.12911 -5.875159,4.4617 -8.073593,6.13919 -11.235989,8.57348 -1.637434,1.26043 -4.711527,3.60443 -6.831319,5.2089 -2.119793,1.60447 -4.957863,3.78162 -6.306821,4.83814 -1.348959,1.05651 -2.626067,2.05195 -2.838017,2.21208 -0.242714,0.18337 -1.089461,-0.45248 -2.28745,-1.71771 z m 149.131209,-7.99151 c -3.68556,-2.83965 -7.23571,-5.5462 -17.69545,-13.49064 -2.60228,-1.9765 -7.49007,-5.72605 -10.86174,-8.33233 -3.37168,-2.60627 -6.87926,-5.24818 -7.79462,-5.8709 -3.11529,-2.11932 -2.98763,-2.14713 9.85581,-2.14713 H 163.936 l 3.98415,3.03696 c 2.19127,1.67033 6.58571,5.01807 9.7654,7.43943 3.17969,2.42136 7.35795,5.62803 9.28504,7.12592 1.92708,1.4979 3.72539,2.849 3.99624,3.00247 0.38499,0.21814 -0.0244,1.07007 -1.87618,3.90445 -2.59398,3.97038 -5.82443,8.3559 -6.13052,8.3225 -0.10675,-0.0117 -1.92847,-1.35748 -4.04826,-2.99073 z M 55.64224,73.699162 45.194627,73.593364 41.802273,71.011643 C 39.936477,69.591698 34.389319,65.333963 29.475254,61.550012 24.561189,57.766061 19.893041,54.251273 19.10159,53.739373 l -1.439001,-0.930725 2.0983,-3.145491 c 1.154065,-1.73002 3.125752,-4.503331 4.381525,-6.162913 l 2.283226,-3.017423 0.736454,0.790916 c 0.40505,0.435003 2.470831,2.100945 4.590623,3.702092 3.892324,2.939996 9.200176,6.964036 16.785793,12.725805 2.277646,1.73002 7.158462,5.481326 10.846259,8.336236 3.687796,2.854909 7.298253,5.528577 8.023239,5.941483 1.649491,0.939445 1.604814,1.794103 -0.09474,1.812422 -0.672877,0.0072 -5.924838,-0.03443 -11.671026,-0.09261 z m 74.02496,-0.252599 c -0.46999,-0.46728 -0.4151,-1.705856 0.10403,-2.34725 0.3945,-0.487427 5.01463,-4.066484 18.65767,-14.453468 2.50522,-1.907313 6.36814,-4.856398 8.58428,-6.55352 2.21615,-1.697123 6.39442,-4.878055 9.28504,-7.068739 2.89064,-2.190684 6.45946,-4.928964 7.93073,-6.085069 l 2.67504,-2.102006 1.88988,1.996089 c 1.86208,1.966734 5.40593,6.252949 6.83929,8.271978 l 0.73363,1.033405 -2.85151,2.122235 c -1.56834,1.167229 -3.87637,2.912465 -5.12898,3.8783 -9.05863,6.984778 -12.16598,9.363278 -15.2481,11.671554 -1.93072,1.445971 -4.40962,3.336773 -5.50867,4.201782 -1.09904,0.86501 -3.21205,2.511255 -4.69558,3.658323 l -2.69732,2.085579 -10.11774,0.01142 c -5.93882,0.0067 -10.25567,-0.125719 -10.45169,-0.320608 z"
       id="path8" /><path
       style="fill:#1a4c9d;stroke-width:0.993132"
       d="m 98.066016,208.96226 c 0.435841,-0.0836 1.066523,-0.0804 1.401512,0.007 0.334997,0.0874 -0.02159,0.15588 -0.792434,0.152 -0.770833,-0.004 -1.044918,-0.0754 -0.609078,-0.15905 z m 11.212124,0 c 0.43584,-0.0836 1.06652,-0.0804 1.40152,0.007 0.33499,0.0874 -0.0216,0.15588 -0.79244,0.152 -0.77084,-0.004 -1.04492,-0.0754 -0.60908,-0.15905 z m -15.771135,-0.33378 c 0.240886,-0.0969 0.635062,-0.0969 0.875947,0 0.240886,0.0969 0.0438,0.17629 -0.437973,0.17629 -0.481771,0 -0.678859,-0.0793 -0.437974,-0.17629 z m 20.672355,0 c 0.24089,-0.0969 0.63506,-0.0969 0.87595,0 0.24088,0.0969 0.0438,0.17629 -0.43798,0.17629 -0.48177,0 -0.67886,-0.0793 -0.43797,-0.17629 z m -23.453488,-0.35677 c 0.25293,-0.10096 0.555132,-0.0885 0.67156,0.0275 0.116428,0.11614 -0.09052,0.19874 -0.459872,0.18357 -0.408172,-0.0168 -0.491197,-0.0996 -0.211688,-0.21115 z m 26.628798,0 c 0.25293,-0.10096 0.55513,-0.0885 0.67156,0.0275 0.11642,0.11614 -0.0905,0.19874 -0.45987,0.18357 -0.40817,-0.0168 -0.49119,-0.0996 -0.21169,-0.21115 z m -29.081451,-0.3495 c 0.25293,-0.10096 0.555132,-0.0885 0.67156,0.0275 0.116428,0.11614 -0.09051,0.19874 -0.459872,0.18357 -0.408172,-0.0168 -0.491197,-0.0996 -0.211688,-0.21115 z m 31.534101,0 c 0.25293,-0.10096 0.55513,-0.0885 0.67156,0.0275 0.11644,0.11614 -0.0906,0.19874 -0.45987,0.18357 -0.40817,-0.0168 -0.49119,-0.0996 -0.21169,-0.21115 z m -31.88448,-3.49499 c 0.25293,-0.10097 0.555132,-0.0885 0.67156,0.0275 0.116428,0.11614 -0.09051,0.19874 -0.459872,0.18356 -0.408172,-0.0168 -0.491196,-0.0996 -0.211688,-0.21114 z m 32.23486,0 c 0.25293,-0.10097 0.55513,-0.0885 0.67156,0.0275 0.11644,0.11614 -0.0905,0.19874 -0.45987,0.18356 -0.40817,-0.0168 -0.49119,-0.0996 -0.21169,-0.21114 z M 76.314911,201.83564 C 64.36727,198.29163 53.112906,192.6106 42.964843,185.00102 c -2.785684,-2.08886 -3.936263,-3.0489 -3.069392,-2.5611 0.257645,0.14498 1.604196,-0.65185 3.309351,-1.95834 3.604562,-2.76182 11.481288,-8.77934 16.728659,-12.78005 2.202528,-1.67926 4.822462,-3.6823 5.822075,-4.4512 0.999613,-0.7689 3.946555,-3.0025 6.54876,-4.96355 2.602206,-1.96106 5.184887,-4.04494 5.739293,-4.63086 1.101375,-1.16398 1.707121,-1.33601 2.002329,-0.56864 0.302908,0.78738 0.284485,49.8347 -0.01871,49.79994 -0.14992,-0.0172 -1.820456,-0.4904 -3.712301,-1.05158 z m 52.755559,0.82167 c 0.14453,-0.0806 0.26279,-11.29069 0.26279,-24.91127 0,-15.20123 0.12807,-24.84364 0.33166,-24.96914 0.18241,-0.11246 1.57967,0.78259 3.105,1.98899 1.52534,1.2064 4.55132,3.53029 6.72442,5.1642 2.17309,1.6339 4.75701,3.60864 5.74206,4.3883 0.98505,0.77966 4.39255,3.38363 7.57224,5.7866 7.08822,5.35673 11.48675,8.71029 13.99172,10.66767 1.047,0.81813 2.07187,1.40374 2.27746,1.30137 0.5396,-0.26872 -1.00858,1.00612 -3.83073,3.15437 -9.32283,7.09662 -21.37772,13.19843 -32.44813,16.42424 -3.95823,1.15338 -4.02948,1.17258 -3.72849,1.00467 z m -76.315644,-6.92285 c -0.653114,-0.52194 -0.648816,-0.5284 0.108223,-0.16246 0.433593,0.20959 0.788352,0.45419 0.788352,0.54353 0,0.26744 -0.18171,0.19021 -0.896575,-0.38107 z m 102.156084,0.39337 c 0,-0.0961 0.31535,-0.3431 0.70076,-0.54884 0.38542,-0.20575 0.70076,-0.29546 0.70076,-0.19935 0,0.0962 -0.31534,0.34309 -0.70076,0.54885 -0.38541,0.20574 -0.70076,0.29545 -0.70076,0.19934 z M 42.394582,189.02588 c -0.435826,-0.55432 -0.423433,-0.56668 0.132288,-0.13195 0.337239,0.26381 0.613162,0.53905 0.613162,0.61162 0,0.28765 -0.287726,0.1025 -0.74545,-0.47967 z m 123.027698,0.47967 c 0,-0.0726 0.27593,-0.34781 0.61316,-0.61162 0.55572,-0.43473 0.56812,-0.42237 0.13229,0.13195 -0.45772,0.58217 -0.74545,0.76732 -0.74545,0.47967 z M 40.993066,187.97738 c -0.435826,-0.55432 -0.423433,-0.56668 0.132288,-0.13195 0.583643,0.45657 0.76925,0.74357 0.480875,0.74357 -0.07275,0 -0.348681,-0.27522 -0.613163,-0.61162 z m 125.830734,0.47968 c 0,-0.0726 0.27592,-0.34782 0.61317,-0.61163 0.55571,-0.43473 0.5681,-0.42237 0.13228,0.13195 -0.45773,0.58218 -0.74545,0.76732 -0.74545,0.47968 z M 39.591551,186.92888 c -0.435826,-0.55432 -0.423433,-0.56668 0.132287,-0.13194 0.583643,0.45656 0.769249,0.74357 0.480876,0.74357 -0.07276,0 -0.348682,-0.27523 -0.613163,-0.61163 z m 128.633769,0.47968 c 0,-0.0726 0.27592,-0.34781 0.61316,-0.61162 0.55571,-0.43474 0.56811,-0.42238 0.13228,0.13194 -0.45772,0.58218 -0.74544,0.76732 -0.74544,0.47968 z m -130.549451,-2.05242 -0.667467,-0.78637 0.788352,0.66579 c 0.740857,0.62568 0.947859,0.90695 0.667467,0.90695 -0.06649,0 -0.421245,-0.35386 -0.788352,-0.78637 z m 132.826911,0.0873 c 0.34879,-0.38444 0.713,-0.69899 0.80936,-0.69899 0.0963,0 -0.11019,0.31455 -0.45898,0.69899 -0.3488,0.38446 -0.71301,0.699 -0.80937,0.699 -0.0963,0 0.11019,-0.31454 0.45899,-0.699 z m -135.097603,-2.00961 -0.849428,-0.96113 0.963542,0.84731 c 0.900575,0.79192 1.124221,1.07494 0.849429,1.07494 -0.06277,0 -0.496357,-0.43251 -0.963543,-0.96112 z m 137.375063,0.0873 c 0.4526,-0.48056 0.90175,-0.87375 0.9981,-0.87375 0.0963,0 -0.19512,0.39319 -0.64772,0.87375 -0.4526,0.48057 -0.90174,0.87375 -0.9981,0.87375 -0.0963,0 0.19512,-0.39318 0.64772,-0.87375 z m -142.611148,-4.98036 -3.32168,-3.40761 3.416195,3.31333 c 3.172926,3.07739 3.575579,3.5019 3.32168,3.5019 -0.05198,0 -1.589272,-1.53343 -3.416195,-3.40762 z m 147.866838,0.0873 c 1.82311,-1.82614 3.39359,-3.32024 3.48994,-3.32024 0.0963,0 -1.31645,1.4941 -3.13957,3.32024 -1.82311,1.82613 -3.3936,3.32024 -3.48994,3.32024 -0.0963,0 1.31645,-1.49411 3.13957,-3.32024 z m -140.360061,2.18436 -0.667467,-0.78637 0.788352,0.66579 c 0.740857,0.62568 0.947859,0.90696 0.667467,0.90696 -0.06649,0 -0.421245,-0.35387 -0.788352,-0.78638 z m 132.826911,0.0873 c 0.34879,-0.38445 0.713,-0.699 0.80936,-0.699 0.0963,0 -0.11019,0.31455 -0.45898,0.699 -0.3488,0.38445 -0.71301,0.699 -0.80937,0.699 -0.0963,0 0.11019,-0.31455 0.45899,-0.699 z m -137.361718,-4.28136 -1.738724,-1.83487 1.83949,1.73436 c 1.709286,1.61159 2.000173,1.93538 1.738723,1.93538 -0.05542,0 -0.883192,-0.82569 -1.839489,-1.83487 z m 142.442208,-0.43688 c 1.24147,-1.24945 2.33605,-2.27174 2.43241,-2.27174 0.0963,0 -0.84056,1.02229 -2.08203,2.27174 -1.24147,1.24946 -2.33606,2.27175 -2.43241,2.27175 -0.0963,0 0.84056,-1.02229 2.08203,-2.27175 z m -150.339082,-2.88336 -0.849429,-0.96112 0.963543,0.84729 c 0.900575,0.79192 1.124221,1.07495 0.849428,1.07495 -0.06277,0 -0.496356,-0.43251 -0.963542,-0.96112 z m 157.697042,0.0873 c 0.4526,-0.48056 0.90174,-0.87374 0.9981,-0.87374 0.0963,0 -0.19512,0.39318 -0.64772,0.87374 -0.45261,0.48056 -0.90175,0.87375 -0.9981,0.87375 -0.0963,0 0.19512,-0.39319 0.64772,-0.87375 z m -159.630898,-2.35911 -0.667467,-0.78638 0.788352,0.66579 c 0.740857,0.62569 0.94786,0.90696 0.667468,0.90696 -0.06649,0 -0.421246,-0.35387 -0.788353,-0.78637 z m 157.003058,0.0873 c 0.3488,-0.38445 0.71301,-0.699 0.80936,-0.699 0.0963,0 -0.11018,0.31455 -0.45898,0.699 -0.3488,0.38445 -0.71302,0.699 -0.80937,0.699 -0.0963,0 0.11019,-0.31455 0.45899,-0.699 z m 4.55492,0 c 0.3488,-0.38445 0.71302,-0.699 0.80937,-0.699 0.0963,0 -0.11019,0.31455 -0.45899,0.699 -0.3488,0.38445 -0.71301,0.699 -0.80937,0.699 -0.0963,0 0.11019,-0.31455 0.45899,-0.699 z M 21.722224,169.10444 c -0.435826,-0.55433 -0.423432,-0.56669 0.132288,-0.13196 0.33724,0.26382 0.613163,0.53905 0.613163,0.61163 0,0.28764 -0.287726,0.10251 -0.745451,-0.47967 z m 164.372416,0.47967 c 0,-0.0726 0.27592,-0.34781 0.61316,-0.61163 0.55572,-0.43473 0.56812,-0.42237 0.13229,0.13196 -0.45773,0.58218 -0.74545,0.76731 -0.74545,0.47967 z m -4.20455,-0.3495 c 0,-0.0726 0.27592,-0.34781 0.61317,-0.61162 0.55572,-0.43474 0.56811,-0.42238 0.13228,0.13195 -0.45773,0.58217 -0.74545,0.76731 -0.74545,0.47967 z M 20.671088,167.70644 c -0.435826,-0.55432 -0.423433,-0.56668 0.132288,-0.13195 0.583642,0.45657 0.769249,0.74357 0.480875,0.74357 -0.07275,0 -0.348681,-0.27523 -0.613163,-0.61162 z m 166.474692,0.47967 c 0,-0.0726 0.27592,-0.34781 0.61316,-0.61162 0.55572,-0.43473 0.56812,-0.42237 0.13229,0.13195 -0.45773,0.58218 -0.74545,0.76732 -0.74545,0.47967 z M 19.619951,166.30844 c -0.435826,-0.55432 -0.423433,-0.56668 0.132287,-0.13195 0.33724,0.26382 0.613163,0.53905 0.613163,0.61163 0,0.28764 -0.287725,0.1025 -0.74545,-0.47968 z m 168.576959,0.47968 c 0,-0.0726 0.27592,-0.34781 0.61317,-0.61163 0.55572,-0.43473 0.56811,-0.42237 0.13229,0.13195 -0.45773,0.58218 -0.74546,0.76732 -0.74546,0.47968 z M 13.007444,156.0856 c -0.206268,-0.38445 -0.296199,-0.699 -0.199845,-0.699 0.09636,0 0.343955,0.31455 0.550224,0.699 0.206269,0.38445 0.296199,0.699 0.199845,0.699 -0.09636,0 -0.343955,-0.31455 -0.550224,-0.699 z m 182.197046,0 c 0.20627,-0.38445 0.45387,-0.699 0.55023,-0.699 0.0963,0 0.006,0.31455 -0.19985,0.699 -0.20627,0.38445 -0.45387,0.699 -0.55022,0.699 -0.0963,0 -0.006,-0.31455 0.19984,-0.699 z M 11.101066,144.05765 c -0.540517,-1.36194 -1.514838,-3.93636 -2.1651579,-5.72094 l -1.1824,-3.24468 8.9337889,0.074 c 10.288781,0.0852 10.522571,0.1773 6.74392,2.65542 -1.848847,1.21251 -8.131382,6.00436 -10.622799,8.10229 -0.713776,0.60104 -0.739264,0.57319 -1.707352,-1.86611 z m 183.052284,-0.24812 c -1.97582,-1.54847 -7.95859,-5.9933 -9.95747,-7.3978 -0.36985,-0.25987 -0.57807,-0.6248 -0.46273,-0.81095 0.12337,-0.19913 3.68158,-0.37404 8.64314,-0.42487 l 8.43342,-0.0864 -1.17802,3.24595 c -1.51338,4.17007 -2.80293,7.26493 -3.02569,7.26157 -0.0963,-9.9e-4 -1.20004,-0.80582 -2.45265,-1.78749 z M 0.7718427,120.58233 c 0.0168126,-0.40715 0.099837,-0.48996 0.21168732,-0.21116 0.10121408,0.2523 0.0887662,0.55374 -0.0276611,0.66988 -0.116428,0.11613 -0.19923954,-0.0903 -0.18402622,-0.45872 z m 206.7235773,0 c 0.0168,-0.40715 0.0998,-0.48996 0.21168,-0.21116 0.10121,0.2523 0.0888,0.55374 -0.0277,0.66988 -0.11642,0.11613 -0.19924,-0.0903 -0.18402,-0.45872 z M 0.42146376,118.13584 c 0.0168126,-0.40715 0.0998371,-0.48996 0.21168727,-0.21116 0.10121422,0.2523 0.0887665,0.55374 -0.0276615,0.66988 -0.116428,0.11612 -0.1992396,-0.0903 -0.18402577,-0.45872 z m 207.42433624,0 c 0.0168,-0.40715 0.0998,-0.48996 0.21168,-0.21116 0.10121,0.2523 0.0888,0.55374 -0.0277,0.66988 -0.11642,0.11612 -0.19924,-0.0903 -0.18402,-0.45872 z M 0.09874632,115.19422 c 0,-0.48056 0.07952684,-0.67715 0.17672622,-0.43688 0.0971994,0.24028 0.0971994,0.63347 0,0.87375 -0.0971994,0.24028 -0.17672622,0.0437 -0.17672622,-0.43687 z m 208.12509368,0 c 0,-0.48056 0.0795,-0.67715 0.17672,-0.43688 0.0972,0.24028 0.0972,0.63347 0,0.87375 -0.0972,0.24028 -0.17672,0.0437 -0.17672,-0.43687 z M -0.21859585,110.47598 c 0.003889,-0.7689 0.0756413,-1.0423 0.15944955,-0.60755 0.08380824,0.43475 0.08062633,1.06385 -0.0070705,1.398 -0.08769721,0.33415 -0.15626766,-0.0215 -0.15237905,-0.79045 z m 208.82584585,0 c 0.004,-0.7689 0.0756,-1.0423 0.15945,-0.60755 0.0838,0.43475 0.0806,1.06385 -0.007,1.398 -0.0877,0.33415 -0.15627,-0.0215 -0.15238,-0.79045 z M -0.21859585,99.292014 c 0.003889,-0.768897 0.0756413,-1.042294 0.15944955,-0.607548 0.08380824,0.434746 0.08062633,1.063844 -0.0070705,1.397994 -0.08769721,0.33415 -0.15626766,-0.0215 -0.15237905,-0.790446 z m 208.82584585,0 c 0.004,-0.768897 0.0756,-1.042294 0.15945,-0.607548 0.0838,0.434746 0.0806,1.063844 -0.007,1.397994 -0.0877,0.33415 -0.15627,-0.0215 -0.15238,-0.790446 z M 0.09874632,94.573778 c 0,-0.480561 0.07952684,-0.677155 0.17672622,-0.436874 0.0971994,0.24028 0.0971994,0.633467 0,0.873748 -0.0971994,0.24028 -0.17672622,0.04369 -0.17672622,-0.436874 z m 208.12509368,0 c 0,-0.480561 0.0795,-0.677155 0.17672,-0.436874 0.0972,0.24028 0.0972,0.633467 0,0.873748 -0.0972,0.24028 -0.17672,0.04369 -0.17672,-0.436874 z M 0.42146376,91.573911 c 0.0168126,-0.407146 0.0998371,-0.489962 0.21168727,-0.211155 0.10121422,0.252295 0.0887665,0.553737 -0.0276615,0.669873 -0.116428,0.116136 -0.1992396,-0.09028 -0.18402577,-0.458718 z m 207.42433624,0 c 0.0168,-0.407146 0.0998,-0.489962 0.21168,-0.211155 0.10121,0.252295 0.0888,0.553737 -0.0277,0.669873 -0.11642,0.116136 -0.19924,-0.09028 -0.18402,-0.458718 z M 0.7718427,89.127418 C 0.7886553,88.720272 0.8716797,88.637456 0.98353002,88.916263 1.0847441,89.168558 1.0722962,89.47 0.95586892,89.586136 0.83944092,89.702271 0.75662938,89.495856 0.7718427,89.127418 Z m 206.7235773,0 c 0.0168,-0.407146 0.0998,-0.489962 0.21168,-0.211155 0.10121,0.252295 0.0888,0.553737 -0.0277,0.669873 -0.11642,0.116135 -0.19924,-0.09028 -0.18402,-0.458718 z M 8.9600448,71.263255 c 1.6175632,-4.328765 3.6584742,-9.097375 3.6794042,-8.596967 0.0097,0.231642 1.301084,1.411201 2.869766,2.621242 6.223472,4.800628 8.225786,6.281973 9.170117,6.784204 0.596208,0.317085 0.940798,0.754695 0.872565,1.108109 -0.102342,0.530086 -0.882602,0.573529 -8.441463,0.469998 -5.915539,-0.08103 -8.4694197,0.0024 -8.8143814,0.287995 -0.2807593,0.232425 -6.01e-4,-0.896062 0.6639922,-2.674581 z M 200.26385,73.919224 c -0.16459,-0.265657 -2.64537,-0.348114 -8.06794,-0.268167 -8.88732,0.131031 -9.62525,-0.0427 -7.10399,-1.672488 2.79762,-1.808438 10.90909,-8.110517 11.12571,-8.643954 0.13826,-0.340471 1.25281,2.27482 3.37101,7.910105 1.06476,2.832718 1.26524,3.626796 0.67521,2.674504 z M 78.870188,55.943927 C 78.621669,55.645233 76.511616,53.963845 74.181179,52.207511 71.850743,50.451177 69.076834,48.334186 68.016937,47.503087 66.957041,46.671988 61.832749,42.765376 56.629621,38.821726 51.426494,34.878076 45.699892,30.518968 43.903839,29.13482 l -3.265553,-2.516635 1.163279,-0.975809 C 43.909382,23.874246 52.71352,18.116777 56.079593,16.305255 62.531276,12.833148 69.642341,9.8865847 75.938546,8.0764359 77.651976,7.5838275 79.33572,7.0937784 79.6802,6.987438 c 0.597679,-0.1845026 0.624366,0.9261111 0.583452,24.281105 -0.03406,19.442826 -0.13526,24.550931 -0.492245,24.846458 -0.326632,0.2704 -0.572782,0.223675 -0.901219,-0.171074 z M 129.75412,56.0594 c -0.31946,-0.318661 -0.42086,-6.248445 -0.42086,-24.610965 0,-13.305136 -0.11826,-24.2571227 -0.26279,-24.337749 -0.30099,-0.1679075 -0.22974,-0.1487061 3.72849,1.0046773 11.17939,3.2575507 22.81278,9.1637597 32.79851,16.6516137 2.76651,2.07448 3.93223,3.045538 3.08916,2.573279 -0.23301,-0.130523 -1.92128,0.923326 -3.85417,2.405851 -3.75275,2.878349 -7.87091,6.020949 -17.2795,13.186137 -3.3724,2.568275 -7.55067,5.750876 -9.28504,7.072447 -1.73438,1.321571 -3.7841,2.881635 -4.55493,3.466808 -0.77083,0.585173 -1.88223,1.501297 -2.46976,2.035832 -0.83144,0.756436 -1.16154,0.878818 -1.48911,0.552069 z M 13.007444,53.682396 c 0.206269,-0.38445 0.45387,-0.698999 0.550224,-0.698999 0.09636,0 0.0065,0.314549 -0.199845,0.698999 -0.206269,0.384449 -0.45387,0.698998 -0.550224,0.698998 -0.09636,0 -0.0065,-0.314549 0.199845,-0.698998 z m 182.197046,0 c -0.20627,-0.38445 -0.2962,-0.698999 -0.19984,-0.698999 0.0963,0 0.34395,0.314549 0.55022,0.698999 0.20627,0.384449 0.29619,0.698998 0.19985,0.698998 -0.0963,0 -0.34396,-0.314549 -0.55023,-0.698998 z M 19.314265,43.764469 c 0,-0.07257 0.275923,-0.347806 0.613163,-0.611623 0.55572,-0.434732 0.568114,-0.42237 0.132288,0.131955 -0.457725,0.582177 -0.745451,0.767317 -0.745451,0.479668 z M 188.50259,43.284801 c -0.43582,-0.554325 -0.42343,-0.566687 0.1323,-0.131955 0.33724,0.263817 0.61316,0.539047 0.61316,0.611623 0,0.287649 -0.28772,0.102509 -0.74546,-0.479668 z M 20.365401,42.366472 c 0,-0.07258 0.275925,-0.347805 0.613164,-0.611623 0.55572,-0.434731 0.568113,-0.422369 0.132287,0.131955 -0.457724,0.582178 -0.745451,0.767319 -0.745451,0.479668 z M 187.45146,41.886804 c -0.43583,-0.554324 -0.42343,-0.566686 0.13229,-0.131955 0.58364,0.456576 0.76925,0.743579 0.48087,0.743579 -0.0727,0 -0.34867,-0.275231 -0.61316,-0.611624 z M 21.416539,40.968477 c 0,-0.07257 0.275923,-0.347806 0.613163,-0.611624 0.555721,-0.434732 0.568113,-0.42237 0.132287,0.131956 -0.457725,0.582176 -0.74545,0.767317 -0.74545,0.479668 z M 186.40032,40.488809 c -0.43582,-0.554326 -0.42343,-0.566688 0.13229,-0.131956 0.33725,0.263818 0.61317,0.539048 0.61317,0.611624 0,0.287649 -0.28773,0.102508 -0.74546,-0.479668 z M 23.343622,38.653939 c 0.348798,-0.384449 0.713013,-0.698999 0.809367,-0.698999 0.09636,0 -0.11019,0.31455 -0.458988,0.698999 -0.348797,0.384449 -0.713011,0.698998 -0.809366,0.698998 -0.09636,0 0.11019,-0.314549 0.458987,-0.698998 z m 4.554927,0 c 0.348797,-0.384449 0.713012,-0.698999 0.809367,-0.698999 0.09636,0 -0.110191,0.31455 -0.458989,0.698999 -0.348797,0.384449 -0.713011,0.698998 -0.809366,0.698998 -0.09636,0 0.11019,-0.314549 0.458988,-0.698998 z m 156.936481,-0.08738 -0.66747,-0.786373 0.78835,0.665791 c 0.43359,0.366185 0.78835,0.720053 0.78835,0.786374 0,0.279687 -0.28198,0.07321 -0.90923,-0.665792 z M 25.270707,36.382196 c 0.4526,-0.480561 0.901745,-0.873748 0.998099,-0.873748 0.09636,0 -0.19512,0.393187 -0.64772,0.873748 -0.452601,0.480561 -0.901745,0.873747 -0.9981,0.873747 -0.09636,0 0.19512,-0.393186 0.647721,-0.873747 z m 157.644003,-0.08738 -0.84943,-0.961123 0.96354,0.847296 c 0.52995,0.466012 0.96355,0.898517 0.96355,0.961122 0,0.274103 -0.28375,0.05102 -1.07766,-0.847295 z M 32.628665,33.586204 c 1.24147,-1.249459 2.336054,-2.271744 2.432409,-2.271744 0.09636,0 -0.84056,1.022285 -2.08203,2.271744 -1.241472,1.249458 -2.336056,2.271743 -2.43241,2.271743 -0.09636,0 0.84056,-1.022285 2.082031,-2.271743 z m 142.415865,-0.611624 -1.73872,-1.83487 1.83949,1.734357 c 1.01172,0.953896 1.83949,1.779588 1.83949,1.83487 0,0.260793 -0.3246,-0.02936 -1.94026,-1.734357 z M 30.176012,31.13971 c 1.823118,-1.826131 3.393595,-3.32024 3.489949,-3.32024 0.09636,0 -1.316452,1.494109 -3.13957,3.32024 -1.823118,1.826132 -3.393595,3.320241 -3.489949,3.320241 -0.09636,0 1.316452,-1.494109 3.13957,-3.320241 z M 178.029,31.05233 l -3.32167,-3.407614 3.41619,3.313337 c 1.87891,1.822335 3.41619,3.355763 3.41619,3.407616 0,0.253262 -0.42556,-0.148381 -3.51071,-3.313339 z M 37.709159,28.867967 c 0.348798,-0.384449 0.713012,-0.698998 0.809366,-0.698998 0.09636,0 -0.110189,0.314549 -0.458987,0.698998 -0.348797,0.384449 -0.713013,0.698998 -0.809367,0.698998 -0.09636,0 0.110191,-0.314549 0.458988,-0.698998 z m 132.760321,-0.08737 -0.66746,-0.786372 0.78836,0.665791 c 0.74084,0.625679 0.94785,0.906954 0.66746,0.906954 -0.0665,0 -0.42125,-0.353868 -0.78836,-0.786373 z M 35.431696,26.246724 c 0.452601,-0.480561 0.901745,-0.873747 0.998099,-0.873747 0.09636,0 -0.19512,0.393186 -0.64772,0.873747 -0.4526,0.480561 -0.901745,0.873748 -0.998099,0.873748 -0.09636,0 0.19512,-0.393187 0.64772,-0.873748 z m 137.322024,-0.08737 -0.84942,-0.961122 0.96354,0.847295 c 0.90057,0.791925 1.12422,1.074949 0.84942,1.074949 -0.0628,0 -0.49636,-0.432505 -0.96354,-0.961122 z M 37.709159,24.32448 c 0.348798,-0.384449 0.713012,-0.698998 0.809366,-0.698998 0.09636,0 -0.110189,0.314549 -0.458987,0.698998 -0.348797,0.384449 -0.713013,0.698998 -0.809367,0.698998 -0.09636,0 0.110191,-0.314549 0.458988,-0.698998 z m 132.760321,-0.08738 -0.66746,-0.786372 0.78836,0.665791 c 0.74084,0.625679 0.94785,0.906954 0.66746,0.906954 -0.0665,0 -0.42125,-0.353868 -0.78836,-0.786373 z M 39.285864,23.144028 c 0,-0.07258 0.275923,-0.347806 0.613163,-0.611624 0.555721,-0.434731 0.568114,-0.422369 0.132288,0.131956 -0.457725,0.582177 -0.745451,0.767318 -0.745451,0.479668 z M 168.531,22.66436 c -0.43583,-0.554325 -0.42343,-0.566687 0.13229,-0.131956 0.58364,0.456576 0.76924,0.743579 0.48087,0.743579 -0.0727,0 -0.34868,-0.275231 -0.61316,-0.611623 z M 40.687381,22.095531 c 0,-0.07258 0.275923,-0.347806 0.613163,-0.611623 0.555719,-0.434732 0.568113,-0.42237 0.132286,0.131955 -0.457724,0.582177 -0.745449,0.767317 -0.745449,0.479668 z M 167.12948,21.615863 c -0.43582,-0.554325 -0.42343,-0.566687 0.1323,-0.131955 0.58363,0.456575 0.76924,0.743578 0.48087,0.743578 -0.0727,0 -0.34869,-0.27523 -0.61317,-0.611623 z M 42.088896,21.047034 c 0,-0.07258 0.275923,-0.347806 0.613163,-0.611624 0.555721,-0.434731 0.568113,-0.422369 0.132288,0.131956 -0.457725,0.582177 -0.745451,0.767318 -0.745451,0.479668 z M 165.72797,20.567366 c -0.43583,-0.554325 -0.42343,-0.566687 0.13228,-0.131956 0.58365,0.456576 0.76925,0.743579 0.48088,0.743579 -0.0727,0 -0.34868,-0.275231 -0.61316,-0.611623 z M 52.249885,14.388352 c 0,-0.09611 0.315341,-0.34309 0.700758,-0.548841 0.385417,-0.205751 0.700758,-0.295456 0.700758,-0.199344 0,0.09611 -0.315341,0.343092 -0.700758,0.548842 -0.385417,0.205751 -0.700758,0.295455 -0.700758,0.199343 z M 155.41586,13.99498 c -0.65312,-0.52194 -0.64883,-0.528393 0.10821,-0.162454 0.4336,0.209592 0.78836,0.454181 0.78836,0.54353 0,0.267443 -0.1817,0.19021 -0.89657,-0.381076 z M 87.92284,5.2127868 c 0.25293,-0.1009601 0.555132,-0.088544 0.67156,0.027592 0.116428,0.1161357 -0.09051,0.1987393 -0.459872,0.1835637 -0.408172,-0.01677 -0.491196,-0.099586 -0.211688,-0.2111557 z m 32.23486,0 c 0.25293,-0.1009601 0.55513,-0.088544 0.67156,0.027592 0.11644,0.1161357 -0.0905,0.1987393 -0.45987,0.1835637 -0.40817,-0.01677 -0.49119,-0.099586 -0.21169,-0.2111557 z m -31.884481,-3.49499 c 0.25293,-0.10096 0.555132,-0.088543 0.67156,0.027592 0.116428,0.1161356 -0.09051,0.1987391 -0.459872,0.1835636 -0.408172,-0.01677 -0.491197,-0.099586 -0.211688,-0.2111556 z m 31.534101,0 c 0.25293,-0.10096 0.55513,-0.088543 0.67156,0.027592 0.11644,0.1161356 -0.0906,0.1987391 -0.45987,0.1835636 -0.40817,-0.01677 -0.49119,-0.099586 -0.21169,-0.2111556 z M 90.725872,1.3682978 c 0.25293,-0.10096 0.555132,-0.088543 0.67156,0.027592 0.116428,0.1161356 -0.09052,0.1987392 -0.459872,0.1835636 -0.408172,-0.01677 -0.491197,-0.099586 -0.211688,-0.2111556 z m 26.628798,0 c 0.25293,-0.10096 0.55513,-0.088543 0.67156,0.027592 0.11642,0.1161356 -0.0905,0.1987392 -0.45987,0.1835636 -0.40817,-0.01677 -0.49119,-0.099586 -0.21169,-0.2111556 z M 93.507005,1.02608 c 0.240886,-0.0969553 0.635062,-0.0969553 0.875947,0 0.240886,0.096955 0.0438,0.1762824 -0.437973,0.1762824 -0.481771,0 -0.678859,-0.079327 -0.437974,-0.1762824 z m 20.672355,0 c 0.24089,-0.0969553 0.63506,-0.0969553 0.87595,0 0.24088,0.096955 0.0438,0.1762824 -0.43798,0.1762824 -0.48177,0 -0.67886,-0.079327 -0.43797,-0.1762824 z M 98.066016,0.66086053 c 0.435841,-0.0835978 1.066523,-0.0804239 1.401512,0.007053 0.334997,0.087477 -0.02159,0.1558752 -0.792434,0.15199598 -0.770833,-0.003879 -1.044918,-0.0754513 -0.609078,-0.15904898 z m 11.212124,0 c 0.43584,-0.0835978 1.06652,-0.0804239 1.40152,0.007053 0.33499,0.087477 -0.0216,0.1558752 -0.79244,0.15199598 -0.77084,-0.003879 -1.04492,-0.0754513 -0.60908,-0.15904898 z"
       id="path7" /><path
       style="fill:#060607;stroke-width:0.993132"
       d="M 96.507704,208.86216 C 58.766234,205.68941 26.365437,183.58687 10.174957,149.96937 3.1183902,135.31729 -0.07559182,121.26908 -0.07559182,104.884 -0.07559182,88.498914 3.1183902,74.450704 10.174957,59.798628 25.632343,27.703303 55.588611,6.2362181 91.667515,1.3999103 c 6.268447,-0.84027316 18.958835,-0.84027316 25.227285,0 21.1964,2.8413364 40.0594,11.2105297 55.71025,24.7176927 19.59139,16.907967 31.87398,39.858242 35.42074,66.184432 0.84239,6.252703 0.84239,18.911225 0,25.163925 -1.59765,11.85875 -4.64497,22.1351 -9.63844,32.50341 -15.44354,32.0666 -45.82751,53.83317 -81.48162,58.37207 -5.16173,0.65711 -15.60448,0.92369 -20.398026,0.52072 z m 21.087846,-3.97931 c 17.52655,-2.16188 35.38561,-9.82578 50.1042,-21.50133 8.6228,-6.84007 14.72736,-13.66079 21.68067,-24.22414 3.7183,-5.64878 5.99531,-10.01189 8.53414,-16.35274 4.46028,-11.13974 6.07374,-17.89369 7.09684,-29.70742 1.14349,-13.203696 -0.80946,-29.460688 -4.8493,-40.367129 C 194.82971,58.33412 190.37597,50.525023 181.28201,39.626182 169.76385,25.821977 152.71641,14.457141 135.11451,8.8481474 123.92933,5.2839013 116.94465,4.2400224 104.28116,4.2400224 c -4.432298,0 -9.793094,0.2025747 -11.912887,0.450166 C 73.734099,6.8666554 56.078942,14.369099 40.337162,26.800471 28.565578,36.096556 17.204622,51.131728 11.388379,65.111502 6.5442071,76.754832 4.5996914,84.557394 3.5668843,96.496023 2.4583607,109.30988 4.1214352,124.52622 7.8008998,135.23523 12.779317,149.7248 17.89807,158.89748 27.280299,170.14181 c 15.801557,18.93772 41.398433,32.64033 65.087974,34.84311 2.312501,0.21503 4.67756,0.45468 5.255685,0.53258 2.208616,0.29756 15.955682,-0.13929 19.971592,-0.63465 z"
       id="path6" /></g></svg>
